<svg width="26" height="23" viewBox="0 0 26 23" fill="none" xmlns="http://www.w3.org/2000/svg">
<path d="M24.4617 6.96247L13.5146 1.05505C13.1928 0.881715 12.8061 0.881715 12.4854 1.05505L1.54375 6.96247C1.01725 7.24847 0.821171 7.90497 1.105 8.43147C1.3 8.79438 1.67375 9.00022 2.05834 9.00022C2.23167 9.00022 2.40934 8.95905 2.57292 8.87022L3.36809 8.44122L5.09059 20.6287C5.32459 21.9439 6.50975 22.8625 7.97225 22.8625H18.0278C19.4903 22.8625 20.6754 21.9439 20.9116 20.6005L22.6319 8.44013L23.4303 8.8713C23.9558 9.15622 24.6133 8.96013 24.8972 8.43363C25.1821 7.90713 24.9838 7.24955 24.4595 6.96572L24.4617 6.96247ZM13 15.7212C11.0554 15.7212 9.47917 14.145 9.47917 12.2004C9.47917 10.2558 11.0554 8.67955 13 8.67955C14.9446 8.67955 16.5208 10.2558 16.5208 12.2004C16.5208 14.145 14.9446 15.7212 13 15.7212Z" fill="white"/>
</svg>
