<svg width="22" height="20" viewBox="0 0 22 20" fill="none" xmlns="http://www.w3.org/2000/svg">
<path d="M18.8542 0.269531H3.14582C1.50241 0.269531 0.166656 1.60636 0.166656 3.25086V16.7871C0.166656 18.4316 1.50241 19.7695 3.14582 19.7695H18.8542C20.4976 19.7695 21.8333 18.4316 21.8333 16.7871V3.25086C21.8333 1.60636 20.4976 0.269531 18.8542 0.269531ZM3.14582 1.89453H18.8542C19.6017 1.89453 20.2083 2.5012 20.2083 3.2487V4.0222L11.4875 9.83645C11.1917 10.0314 10.8093 10.0336 10.5125 9.83428L1.79166 4.0222V3.2487C1.79166 2.5012 2.39832 1.89453 3.14582 1.89453V1.89453ZM18.8542 18.1424H3.14582C2.39832 18.1424 1.79166 17.5357 1.79166 16.7882V5.9267L9.63499 11.1592C10.0499 11.4365 10.5255 11.5752 11 11.5752C11.4767 11.5752 11.9501 11.4365 12.365 11.1603L20.2083 5.92778V16.7849C20.2083 17.5324 19.6017 18.1391 18.8542 18.1391V18.1424Z" fill="white"/>
</svg>
