<svg width="24" height="24" viewBox="0 0 24 24" fill="none" xmlns="http://www.w3.org/2000/svg">
<path d="M17.4167 13.625C18.3141 13.625 19.0417 12.8975 19.0417 12C19.0417 11.1025 18.3141 10.375 17.4167 10.375C16.5192 10.375 15.7917 11.1025 15.7917 12C15.7917 12.8975 16.5192 13.625 17.4167 13.625Z" fill="white"/>
<path d="M12 13.625C12.8975 13.625 13.625 12.8975 13.625 12C13.625 11.1025 12.8975 10.375 12 10.375C11.1025 10.375 10.375 11.1025 10.375 12C10.375 12.8975 11.1025 13.625 12 13.625Z" fill="white"/>
<path d="M6.58331 13.625C7.48078 13.625 8.20831 12.8975 8.20831 12C8.20831 11.1025 7.48078 10.375 6.58331 10.375C5.68585 10.375 4.95831 11.1025 4.95831 12C4.95831 12.8975 5.68585 13.625 6.58331 13.625Z" fill="white"/>
<path d="M12 23.6459C5.57799 23.6459 0.354156 18.422 0.354156 12C0.354156 5.57802 5.57799 0.354187 12 0.354187C18.422 0.354187 23.6458 5.57802 23.6458 12C23.6458 18.422 18.422 23.6459 12 23.6459ZM12 1.97919C6.47499 1.97919 1.97916 6.47502 1.97916 12C1.97916 17.525 6.47499 22.0209 12 22.0209C17.525 22.0209 22.0208 17.525 22.0208 12C22.0208 6.47502 17.525 1.97919 12 1.97919Z" fill="white"/>
</svg>
