<svg width="20" height="23" viewBox="0 0 20 23" fill="none" xmlns="http://www.w3.org/2000/svg">
<path d="M9.99999 11.8007C11.4679 11.8007 13.1113 11.6382 14.16 10.44C15.0418 9.43251 15.3278 7.87467 15.0332 5.68201C14.6215 2.62159 12.7397 0.794006 9.99999 0.794006C7.26024 0.794006 5.37849 2.62159 4.96682 5.68417C4.67216 7.87467 4.95815 9.43251 5.83999 10.44C6.88865 11.6393 8.53207 11.8007 9.99999 11.8007V11.8007ZM6.57666 5.89867C6.75216 4.59867 7.42924 2.41901 9.99999 2.41901C12.5707 2.41901 13.2478 4.59976 13.4233 5.89867C13.6476 7.57784 13.4851 8.74459 12.9358 9.37076C12.4429 9.93409 11.5643 10.1757 9.99999 10.1757C8.43566 10.1757 7.55707 9.93409 7.06415 9.37076C6.5149 8.74459 6.35241 7.57676 6.57666 5.89867ZM18.97 19.839C18.0199 16.0192 14.3312 13.3498 9.99999 13.3498C5.66882 13.3498 1.98007 16.0192 1.02999 19.839C0.843656 20.5887 0.999655 21.3557 1.45791 21.9407C1.89991 22.504 2.58457 22.829 3.33532 22.829H16.6647C17.4154 22.829 18.1001 22.504 18.5421 21.9407C19.0014 21.3557 19.1563 20.5898 18.9689 19.839H18.97ZM17.2627 20.9397C17.1262 21.113 16.9203 21.2062 16.6647 21.2062H3.33532C3.08074 21.2062 2.87382 21.1141 2.73732 20.9397C2.58891 20.7512 2.54232 20.4933 2.60732 20.2312C3.37649 17.1383 6.41741 14.977 9.99999 14.977C13.5826 14.977 16.6235 17.1372 17.3927 20.2312C17.4577 20.4933 17.4111 20.7512 17.2627 20.9397V20.9397Z" fill="white"/>
</svg>
