<svg width="17" height="17" viewBox="0 0 17 17" fill="none" xmlns="http://www.w3.org/2000/svg">
<path d="M16.0445 15.2055L13.147 12.308C14.196 11.065 14.8333 9.46112 14.8333 7.70837C14.8333 3.77379 11.6428 0.583374 7.70825 0.583374C3.77367 0.583374 0.583252 3.77379 0.583252 7.70837C0.583252 11.643 3.77367 14.8334 7.70825 14.8334C9.46179 14.8334 11.0649 14.1969 12.3063 13.1471L15.2038 16.0446C15.3201 16.1602 15.4729 16.2188 15.6233 16.2188C15.7738 16.2188 15.9281 16.161 16.0429 16.0446C16.2765 15.8127 16.2765 15.4374 16.0445 15.2055ZM1.77075 7.70837C1.77075 4.43483 4.43471 1.77087 7.70825 1.77087C10.9818 1.77087 13.6458 4.43483 13.6458 7.70837C13.6458 10.9819 10.9818 13.6459 7.70825 13.6459C4.43471 13.6459 1.77075 10.9819 1.77075 7.70837Z" fill="#6E767D"/>
</svg>
