<svg width="16" height="17" viewBox="0 0 16 17" fill="none" xmlns="http://www.w3.org/2000/svg">
<path d="M12.3779 4.9138L8.41957 0.955463C8.18761 0.723505 7.81157 0.723505 7.58041 0.955463L3.62207 4.9138C3.38932 5.14575 3.38932 5.5218 3.62207 5.75296C3.85482 5.98413 4.22928 5.98571 4.46124 5.75296L7.40624 2.80796L7.40624 10.875C7.40624 11.2028 7.67224 11.4688 7.99999 11.4688C8.32774 11.4688 8.59374 11.2028 8.59374 10.875L8.59374 2.80796L11.5387 5.75296C11.6543 5.86934 11.8063 5.92713 11.9583 5.92713C12.1103 5.92713 12.2623 5.87013 12.3779 5.75296C12.6099 5.521 12.6099 5.14575 12.3779 4.9138Z" fill="#6E767D"/>
<path d="M14.1022 16.3724L1.89787 16.3724C0.897207 16.3724 0.083374 15.5585 0.083374 14.5579L0.083374 10.0834C0.083374 9.75562 0.349374 9.48962 0.677124 9.48962C1.00487 9.48962 1.27087 9.75562 1.27087 10.0834L1.27087 14.5579C1.27087 14.9038 1.55192 15.1849 1.89787 15.1849L14.1022 15.1849C14.4482 15.1849 14.7292 14.9038 14.7292 14.5579L14.7292 10.0834C14.7292 9.75562 14.9952 9.48962 15.323 9.48962C15.6507 9.48962 15.9167 9.75562 15.9167 10.0834L15.9167 14.5579C15.9167 15.5585 15.1029 16.3724 14.1022 16.3724Z" fill="#6E767D"/>
</svg>
