<svg width="35" height="35" viewBox="0 0 35 35" fill="none" xmlns="http://www.w3.org/2000/svg">
<path d="M11.9583 19.0833C12.8328 19.0833 13.5417 18.3744 13.5417 17.5C13.5417 16.6255 12.8328 15.9166 11.9583 15.9166C11.0839 15.9166 10.375 16.6255 10.375 17.5C10.375 18.3744 11.0839 19.0833 11.9583 19.0833Z" fill="#6E767D"/>
<path d="M17.5001 19.0833C18.3745 19.0833 19.0834 18.3744 19.0834 17.5C19.0834 16.6255 18.3745 15.9166 17.5001 15.9166C16.6256 15.9166 15.9167 16.6255 15.9167 17.5C15.9167 18.3744 16.6256 19.0833 17.5001 19.0833Z" fill="#6E767D"/>
<path d="M23.0416 19.0833C23.916 19.0833 24.6249 18.3744 24.6249 17.5C24.6249 16.6255 23.916 15.9166 23.0416 15.9166C22.1671 15.9166 21.4583 16.6255 21.4583 17.5C21.4583 18.3744 22.1671 19.0833 23.0416 19.0833Z" fill="#6E767D"/>
</svg>
