<svg width="17" height="17" viewBox="0 0 17 17" fill="none" xmlns="http://www.w3.org/2000/svg">
<path d="M16.8124 8.89583C16.8124 7.645 16.1197 6.56042 15.1119 6.04583C15.2339 5.70146 15.3004 5.32938 15.3004 4.9375C15.3004 3.18792 13.9466 1.77242 12.2778 1.77242C11.9057 1.77242 11.5494 1.83892 11.2201 1.97033C10.7309 0.911875 9.69536 0.1875 8.49994 0.1875C7.30452 0.1875 6.2706 0.913458 5.77898 1.96875C5.45044 1.83812 5.0934 1.77083 4.72131 1.77083C3.0509 1.77083 1.69873 3.18792 1.69873 4.9375C1.69873 5.32858 1.76444 5.70067 1.88635 6.04583C0.879354 6.56042 0.186646 7.64342 0.186646 8.89583C0.186646 10.0794 0.805729 11.1109 1.72406 11.6556C1.70823 11.7902 1.69873 11.9248 1.69873 12.0625C1.69873 13.8121 3.0509 15.2292 4.72131 15.2292C5.0934 15.2292 5.44965 15.1611 5.77819 15.0313C6.26902 16.0873 7.30294 16.8125 8.49915 16.8125C9.69615 16.8125 10.7301 16.0873 11.2201 15.0313C11.5486 15.1603 11.9049 15.2276 12.2778 15.2276C13.9482 15.2276 15.3004 13.8105 15.3004 12.0609C15.3004 11.9232 15.2909 11.7886 15.2742 11.6548C16.191 11.1109 16.8124 10.0794 16.8124 8.89663V8.89583ZM11.5748 6.25642L8.14369 11.4023C8.0289 11.574 7.84127 11.6667 7.6489 11.6667C7.53569 11.6667 7.4209 11.635 7.31956 11.5669L7.22852 11.4925L5.31665 9.58062C5.08469 9.34867 5.08469 8.97263 5.31665 8.74146C5.5486 8.51029 5.92465 8.50871 6.15581 8.74146L7.55706 10.1403L10.5852 5.59617C10.7673 5.32304 11.1362 5.251 11.4085 5.43229C11.6824 5.61438 11.7569 5.98329 11.5748 6.25563V6.25642Z" fill="white"/>
</svg>
